<svg width="24" height="24" viewBox="0 0 24 24" fill="none" xmlns="http://www.w3.org/2000/svg">
<path d="M18 13H12.94C12.6 16.1 10.68 18.72 8 20.05C7.97 21.86 6.34 23.28 4.45 22.95C3.25 22.74 2.26 21.75 2.05 20.55C1.71 18.65 3.16 17 5 17C5.95 17 6.78 17.45 7.33 18.14C9.23 17.11 10.59 15.23 10.91 13H7.81C7.33 14.34 5.95 15.24 4.39 14.94C3.21 14.71 2.26 13.74 2.04 12.56C1.7 10.66 3.16 9 5 9C6.3 9 7.4 9.84 7.82 11H10.92C10.6 8.77 9.23 6.9 7.33 5.86C6.69 6.66 5.66 7.14 4.52 6.96C3.29 6.77 2.26 5.77 2.05 4.54C1.72 2.65 3.17 1 5 1C6.64 1 7.96 2.31 7.99 3.95C10.67 5.28 12.59 7.9 12.93 11H18V9.21C18 8.76 18.54 8.54 18.85 8.86L21.64 11.65C21.84 11.85 21.84 12.16 21.64 12.36L18.85 15.15C18.54 15.46 18 15.24 18 14.79V13Z" fill="#323232"/>
</svg>
