<svg width="24" height="24" viewBox="0 0 24 24" fill="none" xmlns="http://www.w3.org/2000/svg">
<path d="M9.78 11.16L8.36 12.58C7.68 11.89 7.02 11 6.57 9.64L8.51 9.15C8.83 10.04 9.28 10.65 9.78 11.16ZM10.15 5.15L7.35 2.35C7.15 2.15 6.84 2.15 6.64 2.35L3.85 5.15C3.54 5.46 3.76 6 4.21 6H6.02C6.04 6.81 6.1 7.54 6.21 8.17L8.15 7.68C8.08 7.2 8.03 6.63 8.02 6H9.8C10.24 6 10.46 5.46 10.15 5.15ZM20.15 5.15L17.36 2.36C17.16 2.16 16.85 2.16 16.65 2.36L13.86 5.15C13.54 5.46 13.76 6 14.21 6H15.99C15.89 9.68 14.71 10.75 13.45 11.88C12.95 12.32 12.44 12.8 12 13.43C11.66 12.94 11.27 12.55 10.87 12.19L9.46 13.6C10.39 14.45 11 15.14 11 17V21C11 21.55 11.45 22 12 22C12.55 22 13 21.55 13 21V17C13 14.98 13.71 14.34 14.79 13.37C16.17 12.13 17.87 10.59 17.99 6H19.79C20.24 6 20.46 5.46 20.15 5.15Z" fill="#323232"/>
</svg>
